<svg width="177" height="43" viewBox="0 0 151 36" fill="none" xmlns="http://www.w3.org/2000/svg">
<path d="M9.4234 14.4777L19.7006 26.8826H13.821L4.84862 15.7085V26.8826H0V2.4939H4.84862V13.4575L13.8532 2.4939H19.7006L9.4234 14.4777Z" fill="#390179"/>
<path d="M30.0582 8.51821C31.2341 7.82185 32.5389 7.46558 33.9726 7.46558V12.6802H32.5711C29.0112 12.6802 27.2392 14.332 27.2392 17.6518V26.8826H22.3906V7.74088H27.2392V11.4008C27.948 10.1862 28.8823 9.23076 30.0582 8.51821Z" fill="#390179"/>
<path d="M41.5113 7.74084V26.8987H36.6627V7.74084H41.5113Z" fill="#390179"/>
<path d="M58.0547 9.26311C59.4561 10.4453 60.326 11.9999 60.6642 13.9595H56.1217C55.9445 13.0364 55.5257 12.3076 54.8813 11.7408C54.237 11.1902 53.3994 10.9149 52.3684 10.9149C51.5469 10.9149 50.9026 11.1093 50.4354 11.4979C49.9844 11.8866 49.7427 12.421 49.7427 13.085C49.7427 13.6194 49.9199 14.0404 50.2904 14.3643C50.6609 14.6882 51.112 14.9473 51.6596 15.1255C52.2073 15.3036 52.9966 15.5303 54.0276 15.7894C55.4773 16.1133 56.6532 16.4534 57.5553 16.8097C58.4574 17.1659 59.2467 17.7327 59.891 18.5101C60.5515 19.2874 60.8736 20.3238 60.8736 21.6356C60.8736 23.2712 60.2293 24.5991 58.9729 25.6194C57.7003 26.6396 55.9928 27.1417 53.8343 27.1417C51.3536 27.1417 49.3723 26.5749 47.8903 25.4574C46.3922 24.34 45.4901 22.7368 45.168 20.6639H49.8072C49.9199 21.6032 50.3388 22.3481 51.0475 22.8987C51.7563 23.4332 52.6906 23.7085 53.8343 23.7085C54.6558 23.7085 55.284 23.5141 55.719 23.1093C56.1539 22.7044 56.3794 22.1862 56.3794 21.5384C56.3794 20.9878 56.1861 20.5344 55.8156 20.1943C55.4451 19.8542 54.9619 19.5789 54.3981 19.4008C53.8343 19.2226 53.045 18.9959 52.014 18.7368C50.5965 18.4129 49.4367 18.089 48.5507 17.7489C47.6648 17.4089 46.9077 16.8744 46.2794 16.1457C45.6512 15.4008 45.3291 14.3967 45.3291 13.1012C45.3291 11.4493 45.9573 10.089 47.2137 9.05258C48.4702 8.01614 50.2099 7.49792 52.449 7.49792C54.8008 7.49792 56.6532 8.08092 58.0547 9.26311Z" fill="#390179"/>
<path d="M80.2358 8.68015C81.5245 9.45748 82.5232 10.5911 83.2481 12.081C83.973 13.5708 84.3274 15.3198 84.3274 17.3117C84.3274 19.3198 83.973 21.0688 83.2481 22.5425C82.5232 24.0324 81.5245 25.166 80.2358 25.9433C78.9472 26.7206 77.5135 27.1255 75.9027 27.1255C74.2918 27.1255 72.9226 26.7368 71.795 25.9595C70.6674 25.1822 69.8459 24.1619 69.3627 22.8664V36H64.514V7.74088H69.3627V11.7247C69.8459 10.4291 70.6513 9.4089 71.795 8.64776C72.9226 7.88663 74.2918 7.51416 75.9027 7.51416C77.4974 7.49796 78.9472 7.88663 80.2358 8.68015ZM70.748 13.2631C69.7976 14.2672 69.3143 15.6275 69.3143 17.3279C69.3143 19.0121 69.7976 20.3563 70.748 21.3603C71.6984 22.3644 72.9065 22.8664 74.3724 22.8664C75.8866 22.8664 77.0947 22.3806 78.0129 21.3927C78.931 20.421 79.3821 19.0607 79.3821 17.3279C79.3821 15.5951 78.931 14.2348 78.0129 13.247C77.0947 12.2591 75.8866 11.7571 74.3724 11.7571C72.9226 11.7571 71.6984 12.2591 70.748 13.2631Z" fill="#390179"/>
<path d="M124.244 7.83804C125.436 8.63156 126.274 9.70039 126.773 11.0283V6.89877H131.783V26.8016H126.773V22.6397C126.274 23.9838 125.42 25.0526 124.244 25.8623C123.052 26.6721 121.618 27.0607 119.959 27.0607C118.284 27.0607 116.786 26.6559 115.465 25.8461C114.128 25.0364 113.081 23.8542 112.34 22.3158C111.583 20.7773 111.212 18.9636 111.212 16.8745C111.212 14.7854 111.583 12.9716 112.34 11.4332C113.097 9.89472 114.128 8.71253 115.465 7.90282C116.802 7.0931 118.3 6.68824 119.959 6.68824C121.618 6.63966 123.052 7.04452 124.244 7.83804ZM117.736 12.6154C116.786 13.6518 116.303 15.0607 116.303 16.8583C116.303 18.6559 116.786 20.0648 117.736 21.085C118.687 22.1053 119.959 22.6073 121.522 22.6073C123.052 22.6073 124.308 22.0891 125.291 21.0526C126.274 20.0162 126.773 18.6235 126.773 16.8745C126.773 15.1093 126.274 13.7004 125.291 12.6478C124.308 11.6113 123.052 11.0931 121.522 11.0931C119.943 11.0607 118.687 11.5789 117.736 12.6154Z" fill="#390179"/>
<path d="M141.383 0.210571V26.7855H136.341V0.210571H141.383Z" fill="#390179"/>
<path d="M151 0.210571V26.7855H145.958V0.210571H151Z" fill="#390179"/>
<path d="M93.9119 30.9312C89.6754 27.2712 87.4685 23.0931 87.3235 18.4939C87.0819 10.5101 93.2675 4.34004 93.5253 4.08093L95.9093 6.54247L94.7173 5.3117L95.9093 6.54247C95.861 6.59106 90.513 11.9514 90.7224 18.4129C90.8352 21.9919 92.6554 25.3279 96.1348 28.3401L93.9119 30.9312Z" fill="#390179"/>
<path d="M99.5983 26.2024C95.4745 22.089 95.7323 17.7813 96.6666 14.8987C97.6331 11.9028 99.55 9.8623 99.6305 9.76514L102.111 12.1295L100.871 10.9473L102.111 12.1295C102.095 12.1457 100.597 13.7813 99.8882 16.0647C98.9862 18.9311 99.6788 21.4575 102.015 23.7732L99.5983 26.2024Z" fill="#390179"/>
<path d="M39.1917 4.98786C40.5617 4.98786 41.6724 3.87129 41.6724 2.49393C41.6724 1.11657 40.5617 0 39.1917 0C37.8216 0 36.711 1.11657 36.711 2.49393C36.711 3.87129 37.8216 4.98786 39.1917 4.98786Z" fill="#390179"/>
<path d="M105.88 19.9515C107.25 19.9515 108.361 18.8349 108.361 17.4576C108.361 16.0802 107.25 14.9636 105.88 14.9636C104.51 14.9636 103.4 16.0802 103.4 17.4576C103.4 18.8349 104.51 19.9515 105.88 19.9515Z" fill="#390179"/>
</svg>
